<?xml version="1.0" encoding="UTF-8" standalone="no"?>
<!DOCTYPE svg PUBLIC "-//W3C//DTD SVG 1.1//EN"
 "http://www.w3.org/Graphics/SVG/1.1/DTD/svg11.dtd">
<!-- Generated by graphviz version 2.40.1 (20161225.0304)
 -->
<!-- Title: dependencies Pages: 1 -->
<svg width="1248pt" height="284pt"
 viewBox="0.00 0.00 1248.00 284.00" xmlns="http://www.w3.org/2000/svg" xmlns:xlink="http://www.w3.org/1999/xlink">
<g id="graph0" class="graph" transform="scale(1 1) rotate(0) translate(4 280)">
<title>dependencies</title>
<polygon fill="#ffffff" stroke="transparent" points="-4,4 -4,-280 1244,-280 1244,4 -4,4"/>
<text text-anchor="start" x="599.0091" y="-42.4" font-family="sans-serif" font-weight="bold" font-size="14.00" fill="#000000">Legend</text>
<polygon fill="#ffffb3" stroke="transparent" points="386,-10 386,-30 406,-30 406,-10 386,-10"/>
<text text-anchor="start" x="409.629" y="-15.4" font-family="sans-serif" font-size="14.00" fill="#000000"> &#160;Declarations</text>
<polygon fill="#8dd3c7" stroke="transparent" points="499,-10 499,-30 519,-30 519,-10 499,-10"/>
<text text-anchor="start" x="522.7251" y="-15.4" font-family="sans-serif" font-size="14.00" fill="#000000"> &#160;Module</text>
<polygon fill="#80b1d3" stroke="transparent" points="585,-10 585,-30 605,-30 605,-10 585,-10"/>
<text text-anchor="start" x="608.7812" y="-15.4" font-family="sans-serif" font-size="14.00" fill="#000000"> &#160;Bootstrap</text>
<polygon fill="#fdb462" stroke="transparent" points="682,-10 682,-30 702,-30 702,-10 682,-10"/>
<text text-anchor="start" x="705.6732" y="-15.4" font-family="sans-serif" font-size="14.00" fill="#000000"> &#160;Providers</text>
<polygon fill="#fb8072" stroke="transparent" points="778,-10 778,-30 798,-30 798,-10 778,-10"/>
<text text-anchor="start" x="801.7258" y="-15.4" font-family="sans-serif" font-size="14.00" fill="#000000"> &#160;Exports</text>
<g id="clust1" class="cluster">
<title>cluster_AppModule</title>
<polygon fill="none" stroke="#000000" stroke-dasharray="1,5" points="8,-70 8,-268 1232,-268 1232,-70 8,-70"/>
</g>
<g id="clust2" class="cluster">
<title>cluster_AppModule_declarations</title>
<polygon fill="none" stroke="#000000" points="830,-78 830,-130 1224,-130 1224,-78 830,-78"/>
</g>
<g id="clust6" class="cluster">
<title>cluster_AppModule_imports</title>
<polygon fill="none" stroke="#000000" points="156,-78 156,-130 822,-130 822,-78 156,-78"/>
</g>
<g id="clust8" class="cluster">
<title>cluster_AppModule_bootstrap</title>
<polygon fill="none" stroke="#000000" points="580,-208 580,-260 704,-260 704,-208 580,-208"/>
</g>
<g id="clust9" class="cluster">
<title>cluster_AppModule_providers</title>
<polygon fill="none" stroke="#000000" points="16,-78 16,-130 148,-130 148,-78 16,-78"/>
</g>
<!-- AppComponent -->
<g id="node1" class="node">
<title>AppComponent</title>
<polygon fill="#ffffb3" stroke="#000000" points="1215.9399,-122 1110.0601,-122 1110.0601,-86 1215.9399,-86 1215.9399,-122"/>
<text text-anchor="middle" x="1163" y="-99.8" font-family="Times,serif" font-size="14.00" fill="#000000">AppComponent</text>
</g>
<!-- AppModule -->
<g id="node4" class="node">
<title>AppModule</title>
<polygon fill="#8dd3c7" stroke="#000000" points="683.6571,-187 680.6571,-191 659.6571,-191 656.6571,-187 600.3429,-187 600.3429,-151 683.6571,-151 683.6571,-187"/>
<text text-anchor="middle" x="642" y="-164.8" font-family="Times,serif" font-size="14.00" fill="#000000">AppModule</text>
</g>
<!-- AppComponent&#45;&gt;AppModule -->
<g id="edge1" class="edge">
<title>AppComponent&#45;&gt;AppModule</title>
<path fill="none" stroke="#000000" d="M1163,-122.0109C1163,-144.4852 1163,-180 1163,-180 1163,-180 693.7549,-180 693.7549,-180"/>
<polygon fill="#000000" stroke="#000000" points="693.755,-176.5001 683.7549,-180 693.7549,-183.5001 693.755,-176.5001"/>
</g>
<!-- ShotListComponent -->
<g id="node2" class="node">
<title>ShotListComponent</title>
<polygon fill="#ffffb3" stroke="#000000" points="1092.2842,-122 963.7158,-122 963.7158,-86 1092.2842,-86 1092.2842,-122"/>
<text text-anchor="middle" x="1028" y="-99.8" font-family="Times,serif" font-size="14.00" fill="#000000">ShotListComponent</text>
</g>
<!-- ShotListComponent&#45;&gt;AppModule -->
<g id="edge2" class="edge">
<title>ShotListComponent&#45;&gt;AppModule</title>
<path fill="none" stroke="#000000" d="M1028,-122.1289C1028,-142.5724 1028,-173 1028,-173 1028,-173 693.6755,-173 693.6755,-173"/>
<polygon fill="#000000" stroke="#000000" points="693.6755,-169.5001 683.6755,-173 693.6755,-176.5001 693.6755,-169.5001"/>
</g>
<!-- ShotComponent -->
<g id="node3" class="node">
<title>ShotComponent</title>
<polygon fill="#ffffb3" stroke="#000000" points="945.5056,-122 838.4944,-122 838.4944,-86 945.5056,-86 945.5056,-122"/>
<text text-anchor="middle" x="892" y="-99.8" font-family="Times,serif" font-size="14.00" fill="#000000">ShotComponent</text>
</g>
<!-- ShotComponent&#45;&gt;AppModule -->
<g id="edge3" class="edge">
<title>ShotComponent&#45;&gt;AppModule</title>
<path fill="none" stroke="#000000" d="M892,-122.2667C892,-140.5552 892,-166 892,-166 892,-166 693.8444,-166 693.8444,-166"/>
<polygon fill="#000000" stroke="#000000" points="693.8444,-162.5001 683.8444,-166 693.8443,-169.5001 693.8444,-162.5001"/>
</g>
<!-- AppComponent  -->
<g id="node10" class="node">
<title>AppComponent </title>
<polygon fill="#80b1d3" stroke="#000000" points="696.439,-252 587.561,-252 587.561,-216 696.439,-216 696.439,-252"/>
<text text-anchor="middle" x="642" y="-229.8" font-family="Times,serif" font-size="14.00" fill="#000000">AppComponent </text>
</g>
<!-- AppModule&#45;&gt;AppComponent  -->
<g id="edge9" class="edge">
<title>AppModule&#45;&gt;AppComponent </title>
<path fill="none" stroke="#000000" stroke-dasharray="1,5" d="M642,-187.1061C642,-187.1061 642,-205.991 642,-205.991"/>
<polygon fill="#000000" stroke="#000000" points="638.5001,-205.9909 642,-215.991 645.5001,-205.991 638.5001,-205.9909"/>
</g>
<!-- BrowserModule -->
<g id="node5" class="node">
<title>BrowserModule</title>
<polygon fill="#8dd3c7" stroke="#000000" points="814.4734,-122 811.4734,-126 790.4734,-126 787.4734,-122 707.5266,-122 707.5266,-86 814.4734,-86 814.4734,-122"/>
<text text-anchor="middle" x="761" y="-99.8" font-family="Times,serif" font-size="14.00" fill="#000000">BrowserModule</text>
</g>
<!-- BrowserModule&#45;&gt;AppModule -->
<g id="edge4" class="edge">
<title>BrowserModule&#45;&gt;AppModule</title>
<path fill="none" stroke="#000000" d="M761,-122.0091C761,-138.0494 761,-159 761,-159 761,-159 693.9549,-159 693.9549,-159"/>
<polygon fill="#000000" stroke="#000000" points="693.955,-155.5001 683.9549,-159 693.9549,-162.5001 693.955,-155.5001"/>
</g>
<!-- FormsModule -->
<g id="node6" class="node">
<title>FormsModule</title>
<polygon fill="#8dd3c7" stroke="#000000" points="689.8288,-122 686.8288,-126 665.8288,-126 662.8288,-122 594.1712,-122 594.1712,-86 689.8288,-86 689.8288,-122"/>
<text text-anchor="middle" x="642" y="-99.8" font-family="Times,serif" font-size="14.00" fill="#000000">FormsModule</text>
</g>
<!-- FormsModule&#45;&gt;AppModule -->
<g id="edge5" class="edge">
<title>FormsModule&#45;&gt;AppModule</title>
<path fill="none" stroke="#000000" d="M642,-122.1061C642,-122.1061 642,-140.991 642,-140.991"/>
<polygon fill="#000000" stroke="#000000" points="638.5001,-140.9909 642,-150.991 645.5001,-140.991 638.5001,-140.9909"/>
</g>
<!-- HttpModule -->
<g id="node7" class="node">
<title>HttpModule</title>
<polygon fill="#8dd3c7" stroke="#000000" points="576.4387,-122 573.4387,-126 552.4387,-126 549.4387,-122 491.5613,-122 491.5613,-86 576.4387,-86 576.4387,-122"/>
<text text-anchor="middle" x="534" y="-99.8" font-family="Times,serif" font-size="14.00" fill="#000000">HttpModule</text>
</g>
<!-- HttpModule&#45;&gt;AppModule -->
<g id="edge6" class="edge">
<title>HttpModule&#45;&gt;AppModule</title>
<path fill="none" stroke="#000000" d="M534,-122.0091C534,-138.0494 534,-159 534,-159 534,-159 590.2444,-159 590.2444,-159"/>
<polygon fill="#000000" stroke="#000000" points="590.2444,-162.5001 600.2444,-159 590.2443,-155.5001 590.2444,-162.5001"/>
</g>
<!-- MaterialModule.forRoot() -->
<g id="node8" class="node">
<title>MaterialModule.forRoot()</title>
<polygon fill="#8dd3c7" stroke="#000000" points="473.8406,-122 470.8406,-126 449.8406,-126 446.8406,-122 310.1594,-122 310.1594,-86 473.8406,-86 473.8406,-122"/>
<text text-anchor="middle" x="392" y="-99.8" font-family="Times,serif" font-size="14.00" fill="#000000">MaterialModule.forRoot()</text>
</g>
<!-- MaterialModule.forRoot()&#45;&gt;AppModule -->
<g id="edge7" class="edge">
<title>MaterialModule.forRoot()&#45;&gt;AppModule</title>
<path fill="none" stroke="#000000" d="M392,-122.2667C392,-140.5552 392,-166 392,-166 392,-166 590.1556,-166 590.1556,-166"/>
<polygon fill="#000000" stroke="#000000" points="590.1557,-169.5001 600.1556,-166 590.1556,-162.5001 590.1557,-169.5001"/>
</g>
<!-- AppRoutingModule -->
<g id="node9" class="node">
<title>AppRoutingModule</title>
<polygon fill="#8dd3c7" stroke="#000000" points="292.2744,-122 289.2744,-126 268.2744,-126 265.2744,-122 163.7256,-122 163.7256,-86 292.2744,-86 292.2744,-122"/>
<text text-anchor="middle" x="228" y="-99.8" font-family="Times,serif" font-size="14.00" fill="#000000">AppRoutingModule</text>
</g>
<!-- AppRoutingModule&#45;&gt;AppModule -->
<g id="edge8" class="edge">
<title>AppRoutingModule&#45;&gt;AppModule</title>
<path fill="none" stroke="#000000" d="M228,-122.1289C228,-142.5724 228,-173 228,-173 228,-173 590.0252,-173 590.0252,-173"/>
<polygon fill="#000000" stroke="#000000" points="590.0252,-176.5001 600.0252,-173 590.0251,-169.5001 590.0252,-176.5001"/>
</g>
<!-- ShotService -->
<g id="node11" class="node">
<title>ShotService</title>
<ellipse fill="#fdb462" stroke="#000000" cx="82" cy="-104" rx="57.9023" ry="18"/>
<text text-anchor="middle" x="82" y="-99.8" font-family="Times,serif" font-size="14.00" fill="#000000">ShotService</text>
</g>
<!-- ShotService&#45;&gt;AppModule -->
<g id="edge10" class="edge">
<title>ShotService&#45;&gt;AppModule</title>
<path fill="none" stroke="#000000" d="M82,-122.0109C82,-144.4852 82,-180 82,-180 82,-180 589.909,-180 589.909,-180"/>
<polygon fill="#000000" stroke="#000000" points="589.909,-183.5001 599.909,-180 589.9089,-176.5001 589.909,-183.5001"/>
</g>
</g>
</svg>
